<?xml version="1.0" encoding="utf-8"?>
<!-- Generator: Adobe Illustrator 23.0.1, SVG Export Plug-In . SVG Version: 6.00 Build 0)  -->
<svg version="1.1" id="Layer_1" xmlns="http://www.w3.org/2000/svg" xmlns:xlink="http://www.w3.org/1999/xlink" x="0px" y="0px"
	 viewBox="0 0 447.9 510.2" style="enable-background:new 0 0 447.9 510.2;" xml:space="preserve">
<style type="text/css">
	.st0{fill:none;}
	.st1{enable-background:new    ;}
	.st2{fill:#B90000;}
</style>
<rect x="-3.4" y="156.1" class="st0" width="447.9" height="416.6"/>
<g class="st1">
	<path class="st2" d="M22.8,167.5c10.8-1.8,25-3.4,43.1-3.4c22.2,0,38.4,5.2,48.8,14.4c9.5,8.3,15.2,20.9,15.2,36.4
		c0,15.7-4.6,28.1-13.4,37.2c-11.9,12.6-31.2,19.1-53.1,19.1c-6.7,0-12.9-0.3-18.1-1.5v69.7H22.8V167.5z M45.2,251.3
		c4.9,1.3,11.1,1.8,18.6,1.8c27.1,0,43.6-13.2,43.6-37.2c0-23-16.3-34.1-41-34.1c-9.8,0-17.3,0.8-21.2,1.8V251.3z"/>
	<path class="st2" d="M160,167.8c13.7-2.1,29.9-3.6,47.7-3.6c32.2,0,55.2,7.5,70.4,21.7c15.5,14.2,24.5,34.3,24.5,62.4
		c0,28.4-8.8,51.6-25,67.6c-16.3,16.3-43.1,25-76.9,25c-16,0-29.4-0.8-40.8-2.1V167.8z M182.5,321.5c5.7,1,13.9,1.3,22.7,1.3
		c48,0,74-26.8,74-73.8c0.3-41-23-67.1-70.4-67.1c-11.6,0-20.4,1-26.3,2.3V321.5z"/>
	<path class="st2" d="M331.8,165.4h93.7v18.8h-71.2v57.8h65.8v18.6h-65.8v78.7h-22.4V165.4z"/>
</g>
</svg>
