<?xml version="1.0" encoding="utf-8"?>
<!-- Generator: Adobe Illustrator 23.0.1, SVG Export Plug-In . SVG Version: 6.00 Build 0)  -->
<svg version="1.1" id="Layer_1" xmlns="http://www.w3.org/2000/svg" xmlns:xlink="http://www.w3.org/1999/xlink" x="0px" y="0px"
	 viewBox="0 0 447.9 510.2" style="enable-background:new 0 0 447.9 510.2;" xml:space="preserve">
<style type="text/css">
	.st0{fill:none;}
	.st1{enable-background:new    ;}
	.st2{fill:#B90000;}
</style>
<rect y="122" class="st0" width="447.9" height="416.6"/>
<g class="st1">
	<path class="st2" d="M128.7,321.2l-28,84.8h-36l91.6-269.6h42l92,269.6h-37.2l-28.8-84.8H128.7z M217.1,294l-26.4-77.6
		c-6-17.6-10-33.6-14-49.2h-0.8c-4,16-8.4,32.4-13.6,48.8l-26.4,78H217.1z"/>
	<path class="st2" d="M366.7,158c0.4,12-8.4,21.6-22.4,21.6c-12.4,0-21.2-9.6-21.2-21.6c0-12.4,9.2-22,22-22
		C358.3,136,366.7,145.6,366.7,158z M327.5,406V212.4h35.2V406H327.5z"/>
</g>
</svg>
