<?xml version="1.0" encoding="utf-8"?>
<!-- Generator: Adobe Illustrator 23.0.1, SVG Export Plug-In . SVG Version: 6.00 Build 0)  -->
<svg version="1.1" id="Layer_1" xmlns="http://www.w3.org/2000/svg" xmlns:xlink="http://www.w3.org/1999/xlink" x="0px" y="0px"
	 viewBox="0 0 447.9 510.2" style="enable-background:new 0 0 447.9 510.2;" xml:space="preserve">
<style type="text/css">
	.st0{fill:none;}
	.st1{enable-background:new    ;}
	.st2{fill:#B90000;}
</style>
<rect y="122" class="st0" width="447.9" height="416.6"/>
<g class="st1">
	<path class="st2" d="M130.3,136.4V406H95.5V136.4H130.3z"/>
	<path class="st2" d="M357.1,122v234c0,17.2,0.4,36.8,1.6,50h-31.6l-1.6-33.6h-0.8c-10.8,21.6-34.4,38-66,38
		c-46.8,0-82.8-39.6-82.8-98.4c-0.4-64.4,39.6-104,86.8-104c29.6,0,49.6,14,58.4,29.6h0.8V122H357.1z M321.9,291.2
		c0-4.4-0.4-10.4-1.6-14.8c-5.2-22.4-24.4-40.8-50.8-40.8c-36.4,0-58,32-58,74.8c0,39.2,19.2,71.6,57.2,71.6
		c23.6,0,45.2-15.6,51.6-42c1.2-4.8,1.6-9.6,1.6-15.2V291.2z"/>
</g>
</svg>
