<?xml version="1.0" encoding="utf-8"?>
<!-- Generator: Adobe Illustrator 23.0.1, SVG Export Plug-In . SVG Version: 6.00 Build 0)  -->
<svg version="1.1" id="Layer_1" xmlns="http://www.w3.org/2000/svg" xmlns:xlink="http://www.w3.org/1999/xlink" x="0px" y="0px"
	 viewBox="0 0 447.9 510.2" style="enable-background:new 0 0 447.9 510.2;" xml:space="preserve">
<style type="text/css">
	.st0{fill:none;}
	.st1{enable-background:new    ;}
	.st2{fill:#B90000;}
</style>
<rect y="122" class="st0" width="447.9" height="416.6"/>
<g class="st1">
	<path class="st2" d="M68.7,139.6c16.8-2.8,38.8-5.2,66.8-5.2c34.4,0,59.6,8,75.6,22.4c14.8,12.8,23.6,32.4,23.6,56.4
		c0,24.4-7.2,43.6-20.8,57.6c-18.4,19.6-48.4,29.6-82.4,29.6c-10.4,0-20-0.4-28-2.4v108H68.7V139.6z M103.5,269.6
		c7.6,2,17.2,2.8,28.8,2.8c42,0,67.6-20.4,67.6-57.6c0-35.6-25.2-52.8-63.6-52.8c-15.2,0-26.8,1.2-32.8,2.8V269.6z"/>
	<path class="st2" d="M266.7,370c10.4,6.8,28.8,14,46.4,14c25.6,0,37.6-12.8,37.6-28.8c0-16.8-10-26-36-35.6
		c-34.8-12.4-51.2-31.6-51.2-54.8c0-31.2,25.2-56.8,66.8-56.8c19.6,0,36.8,5.6,47.6,12l-8.8,25.6c-7.6-4.8-21.6-11.2-39.6-11.2
		c-20.8,0-32.4,12-32.4,26.4c0,16,11.6,23.2,36.8,32.8c33.6,12.8,50.8,29.6,50.8,58.4c0,34-26.4,58-72.4,58
		c-21.2,0-40.8-5.2-54.4-13.2L266.7,370z"/>
</g>
</svg>
